<svg width="12" height="11" viewBox="0 0 12 11" fill="none" xmlns="http://www.w3.org/2000/svg">
<g id="icon-home 1" clip-path="url(#clip0_28_360)">
<path id="icon" d="M4.00002 6.29V10H5.00002V6.29C5.00002 5.85 5.45002 5.49 6.00002 5.49C6.55002 5.49 7.00002 5.85 7.00002 6.29V10H8.00002V6.29C8.00002 5.3 7.10002 4.5 6.00002 4.5C4.90002 4.5 4.00002 5.3 4.00002 6.29ZM11.82 5.93L6.87002 0.750003C6.39002 0.280003 5.61002 0.280003 5.12002 0.760003L0.180019 5.93C1.87606e-05 6.12 0.0100188 6.43 0.210019 6.62C0.400019 6.8 0.720019 6.79 0.910019 6.6L2.00002 5.45V10.13C2.00002 10.61 2.38002 11 2.85002 11H9.15002C9.62002 11 10 10.61 10 10.13V5.45L11.09 6.6C11.1819 6.6925 11.3057 6.74617 11.436 6.74989C11.5663 6.75361 11.6931 6.70711 11.79 6.62C11.99 6.43 12 6.12 11.82 5.93ZM9.00002 4.5V10H3.00002V4.5C3.00002 4.47 2.99002 4.45 2.98002 4.42L5.82002 1.45C5.92002 1.35 6.07002 1.36 6.16002 1.44L9.01002 4.43C9.01002 4.45 9.00002 4.47 9.00002 4.5Z" fill="#555555"/>
</g>
<defs>
<clipPath id="clip0_28_360">
<rect width="12" height="11" fill="white"/>
</clipPath>
</defs>
</svg>
