<svg width="32" height="32" viewBox="0 0 32 32" fill="none" xmlns="http://www.w3.org/2000/svg">
<circle cx="16" cy="16" r="16" fill="#FF0000"/>
<g clip-path="url(#clip0_302_579)">
<path d="M24.9444 11.3736C24.7293 10.57 24.0977 9.93843 23.2941 9.72331C21.8374 9.33301 15.9998 9.33301 15.9998 9.33301C15.9998 9.33301 10.1623 9.33301 8.70711 9.72331C7.90347 9.93843 7.27193 10.57 7.0568 11.3736C6.6665 12.8288 6.6665 15.8666 6.6665 15.8666C6.6665 15.8666 6.6665 18.9045 7.0568 20.3597C7.27193 21.1633 7.90347 21.7949 8.70711 22.01C10.1623 22.4003 15.9998 22.4003 15.9998 22.4003C15.9998 22.4003 21.8374 22.4003 23.2926 22.01C24.0962 21.7949 24.7277 21.1633 24.9429 20.3597C25.3332 18.9045 25.3332 15.8666 25.3332 15.8666C25.3332 15.8666 25.3332 12.8288 24.9429 11.3736H24.9444Z" fill="white"/>
<path d="M14.1328 18.6668L18.9839 15.8671L14.1328 13.0674V18.6668Z" fill="#FF0000"/>
</g>
<defs>
<clipPath id="clip0_302_579">
<rect width="18.6667" height="13.0673" fill="white" transform="translate(6.6665 9.33301)"/>
</clipPath>
</defs>
</svg>
