<svg width="32" height="32" viewBox="0 0 32 32" fill="none" xmlns="http://www.w3.org/2000/svg">
<g clip-path="url(#clip0_302_575)">
<path d="M32 16C32 7.16352 24.8365 0 16 0C7.16352 0 0 7.16352 0 16C0 23.5034 5.16608 29.7997 12.135 31.529V20.8896H8.83584V16H12.135V13.8931C12.135 8.44736 14.5997 5.9232 19.9462 5.9232C20.96 5.9232 22.7091 6.12224 23.4246 6.32064V10.7526C23.047 10.713 22.391 10.6931 21.5763 10.6931C18.953 10.6931 17.9392 11.687 17.9392 14.2707V16H23.1654L22.2675 20.8896H17.9392V31.8829C25.8618 30.9261 32.0006 24.1805 32.0006 16H32Z" fill="#0866FF"/>
<path d="M22.2666 20.8892L23.1646 15.9997H17.9383V14.2704C17.9383 11.6867 18.9521 10.6928 21.5754 10.6928C22.3902 10.6928 23.0462 10.7126 23.4238 10.7523V6.32029C22.7082 6.12125 20.9591 5.92285 19.9454 5.92285C14.5988 5.92285 12.1342 8.44701 12.1342 13.8928V15.9997H8.83496V20.8892H12.1342V31.5286C13.3719 31.8358 14.6666 31.9997 15.9991 31.9997C16.6551 31.9997 17.3022 31.9593 17.9377 31.8825V20.8892H22.266H22.2666Z" fill="white"/>
</g>
<defs>
<clipPath id="clip0_302_575">
<rect width="32" height="32" fill="white"/>
</clipPath>
</defs>
</svg>
